<svg id="visual" viewBox="0 0 900 200" width="900" height="200" xmlns="http://www.w3.org/2000/svg" xmlns:xlink="http://www.w3.org/1999/xlink" version="1.1"><rect x="0" y="0" width="900" height="200" fill="#eceff4"></rect><path d="M0 79L16.7 79C33.3 79 66.7 79 100 79.8C133.3 80.7 166.7 82.3 200 85.7C233.3 89 266.7 94 300 99.7C333.3 105.3 366.7 111.7 400 109C433.3 106.3 466.7 94.7 500 84.5C533.3 74.3 566.7 65.7 600 68.8C633.3 72 666.7 87 700 91C733.3 95 766.7 88 800 78.5C833.3 69 866.7 57 883.3 51L900 45L900 201L883.3 201C866.7 201 833.3 201 800 201C766.7 201 733.3 201 700 201C666.7 201 633.3 201 600 201C566.7 201 533.3 201 500 201C466.7 201 433.3 201 400 201C366.7 201 333.3 201 300 201C266.7 201 233.3 201 200 201C166.7 201 133.3 201 100 201C66.7 201 33.3 201 16.7 201L0 201Z" fill="#4c566a"></path><path d="M0 98L16.7 97.8C33.3 97.7 66.7 97.3 100 98C133.3 98.7 166.7 100.3 200 105.8C233.3 111.3 266.7 120.7 300 127C333.3 133.3 366.7 136.7 400 136.7C433.3 136.7 466.7 133.3 500 124.8C533.3 116.3 566.7 102.7 600 107.3C633.3 112 666.7 135 700 140.7C733.3 146.3 766.7 134.7 800 128.3C833.3 122 866.7 121 883.3 120.5L900 120L900 201L883.3 201C866.7 201 833.3 201 800 201C766.7 201 733.3 201 700 201C666.7 201 633.3 201 600 201C566.7 201 533.3 201 500 201C466.7 201 433.3 201 400 201C366.7 201 333.3 201 300 201C266.7 201 233.3 201 200 201C166.7 201 133.3 201 100 201C66.7 201 33.3 201 16.7 201L0 201Z" fill="#424b5c"></path><path d="M0 127L16.7 134.2C33.3 141.3 66.7 155.7 100 157.7C133.3 159.7 166.7 149.3 200 140.3C233.3 131.3 266.7 123.7 300 130.3C333.3 137 366.7 158 400 165.5C433.3 173 466.7 167 500 157.8C533.3 148.7 566.7 136.3 600 138.2C633.3 140 666.7 156 700 161.5C733.3 167 766.7 162 800 157.8C833.3 153.7 866.7 150.3 883.3 148.7L900 147L900 201L883.3 201C866.7 201 833.3 201 800 201C766.7 201 733.3 201 700 201C666.7 201 633.3 201 600 201C566.7 201 533.3 201 500 201C466.7 201 433.3 201 400 201C366.7 201 333.3 201 300 201C266.7 201 233.3 201 200 201C166.7 201 133.3 201 100 201C66.7 201 33.3 201 16.7 201L0 201Z" fill="#383f4e"></path><path d="M0 142L16.7 141.7C33.3 141.3 66.7 140.7 100 140.5C133.3 140.3 166.7 140.7 200 145.7C233.3 150.7 266.7 160.3 300 165.8C333.3 171.3 366.7 172.7 400 175.3C433.3 178 466.7 182 500 185C533.3 188 566.7 190 600 190.2C633.3 190.3 666.7 188.7 700 182.5C733.3 176.3 766.7 165.7 800 162C833.3 158.3 866.7 161.7 883.3 163.3L900 165L900 201L883.3 201C866.7 201 833.3 201 800 201C766.7 201 733.3 201 700 201C666.7 201 633.3 201 600 201C566.7 201 533.3 201 500 201C466.7 201 433.3 201 400 201C366.7 201 333.3 201 300 201C266.7 201 233.3 201 200 201C166.7 201 133.3 201 100 201C66.7 201 33.3 201 16.7 201L0 201Z" fill="#2e3440"></path></svg>