<svg id="visual" viewBox="0 0 900 200" width="900" height="200" xmlns="http://www.w3.org/2000/svg" xmlns:xlink="http://www.w3.org/1999/xlink" version="1.1"><rect x="0" y="0" width="900" height="200" fill="#eceff4"></rect><path d="M0 75L21.5 72.5C43 70 86 65 128.8 67.7C171.7 70.3 214.3 80.7 257.2 85.5C300 90.3 343 89.7 385.8 88.7C428.7 87.7 471.3 86.3 514.2 81.7C557 77 600 69 642.8 66.2C685.7 63.3 728.3 65.7 771.2 71.2C814 76.7 857 85.3 878.5 89.7L900 94L900 201L878.5 201C857 201 814 201 771.2 201C728.3 201 685.7 201 642.8 201C600 201 557 201 514.2 201C471.3 201 428.7 201 385.8 201C343 201 300 201 257.2 201C214.3 201 171.7 201 128.8 201C86 201 43 201 21.5 201L0 201Z" fill="#4c566a"></path><path d="M0 122L21.5 121.5C43 121 86 120 128.8 121C171.7 122 214.3 125 257.2 123.5C300 122 343 116 385.8 111.8C428.7 107.7 471.3 105.3 514.2 107.2C557 109 600 115 642.8 116.2C685.7 117.3 728.3 113.7 771.2 112.7C814 111.7 857 113.3 878.5 114.2L900 115L900 201L878.5 201C857 201 814 201 771.2 201C728.3 201 685.7 201 642.8 201C600 201 557 201 514.2 201C471.3 201 428.7 201 385.8 201C343 201 300 201 257.2 201C214.3 201 171.7 201 128.8 201C86 201 43 201 21.5 201L0 201Z" fill="#424b5c"></path><path d="M0 124L21.5 124.7C43 125.3 86 126.7 128.8 130C171.7 133.3 214.3 138.7 257.2 138.5C300 138.3 343 132.7 385.8 133.3C428.7 134 471.3 141 514.2 142.7C557 144.3 600 140.7 642.8 141C685.7 141.3 728.3 145.7 771.2 146.3C814 147 857 144 878.5 142.5L900 141L900 201L878.5 201C857 201 814 201 771.2 201C728.3 201 685.7 201 642.8 201C600 201 557 201 514.2 201C471.3 201 428.7 201 385.8 201C343 201 300 201 257.2 201C214.3 201 171.7 201 128.8 201C86 201 43 201 21.5 201L0 201Z" fill="#383f4e"></path><path d="M0 153L21.5 157.7C43 162.3 86 171.7 128.8 176.2C171.7 180.7 214.3 180.3 257.2 178.7C300 177 343 174 385.8 169.3C428.7 164.7 471.3 158.3 514.2 159.8C557 161.3 600 170.7 642.8 174.2C685.7 177.7 728.3 175.3 771.2 175.7C814 176 857 179 878.5 180.5L900 182L900 201L878.5 201C857 201 814 201 771.2 201C728.3 201 685.7 201 642.8 201C600 201 557 201 514.2 201C471.3 201 428.7 201 385.8 201C343 201 300 201 257.2 201C214.3 201 171.7 201 128.8 201C86 201 43 201 21.5 201L0 201Z" fill="#2e3440"></path></svg>